<?xml version="1.0" encoding="UTF-8" standalone="no"?>
<!-- Created with Inkscape (http://www.inkscape.org/) -->

<svg
   xmlns:dc="http://purl.org/dc/elements/1.1/"
   xmlns:cc="http://creativecommons.org/ns#"
   xmlns:rdf="http://www.w3.org/1999/02/22-rdf-syntax-ns#"
   xmlns:svg="http://www.w3.org/2000/svg"
   xmlns="http://www.w3.org/2000/svg"
   version="1.1"
   width="600"
   height="146.13181"
   id="svg2"
   xml:space="preserve"><metadata
     id="metadata8"><rdf:RDF><cc:Work
         rdf:about=""><dc:format>image/svg+xml</dc:format><dc:type
           rdf:resource="http://purl.org/dc/dcmitype/StillImage" /><dc:title></dc:title></cc:Work></rdf:RDF></metadata><defs
     id="defs6"><clipPath
       id="clipPath20"><path
         d="m 3020,574 531,0 0,-574 -531,0 0,574 z"
         id="path22" /></clipPath><clipPath
       id="clipPath34"><path
         d="m 3965,575 530,0 0,-575 -530,0 0,575 z"
         id="path36" /></clipPath><clipPath
       id="clipPath194"><path
         d="m 606,5859 3885,0 0,-9 -3885,0 0,9 z"
         id="path196" /></clipPath><clipPath
       id="clipPath206"><path
         d="m 606,6346 700,0 0,-271 -700,0 0,271 z"
         id="path208" /></clipPath></defs><g
     transform="matrix(1.25,0,0,-1.25,-73.844053,842.79715)"
     id="g10"><g
       transform="matrix(5.730659,0,0,5.730659,-357.65828,-3690.4614)"
       id="g3363"><path
         d="m 145.68,761.64 0,0 -9.36,-20.4 1.56,0 8.52,18.72 8.52,-18.72 1.56,0 -9.36,20.4 -1.44,0 0,0 z"
         id="path3321"
         style="fill:#201e20;fill-opacity:1;fill-rule:nonzero;stroke:none" /><path
         d="m 81.96,761.64 0,0 -9.24,-20.4 1.44,0 8.52,18.72 8.52,-18.72 1.56,0 -9.36,20.4 -1.44,0 0,0 z"
         id="path3319"
         style="fill:#201e20;fill-opacity:1;fill-rule:nonzero;stroke:none" /><path
         d="m 130.68,741.24 1.56,0 0,20.4 -1.56,0 0,-20.4 z"
         id="path3317"
         style="fill:#201e20;fill-opacity:1;fill-rule:nonzero;stroke:none" /><path
         d="m 122.52,761.64 0,0 -7.92,-12 -8.04,12 -1.44,0 0,-20.4 1.44,0 0,17.64 7.92,-11.64 0.12,0 7.92,11.64 0,-17.64 1.44,0 0,20.4 -1.44,0 0,0 z"
         id="path3315"
         style="fill:#201e20;fill-opacity:1;fill-rule:nonzero;stroke:none" /><path
         d="m 96.96,761.64 1.44,0 0,-20.4 -1.44,0 0,20.4"
         id="path210"
         style="fill:#201e20;fill-opacity:1;fill-rule:nonzero;stroke:none" /></g></g></svg>
