<?xml version="1.0" encoding="UTF-8"?>
<svg version="1.1" viewBox="0 0 298 91.8" xmlns="http://www.w3.org/2000/svg" xmlns:cc="http://creativecommons.org/ns#" xmlns:dc="http://purl.org/dc/elements/1.1/" xmlns:rdf="http://www.w3.org/1999/02/22-rdf-syntax-ns#">
<title>Rackspace Technology logo</title>
<desc>A managed cloud computing company based in San Antonio, Texas, United States</desc>
 <metadata>
  <rdf:RDF>
   <cc:Work rdf:about="">
    <dc:format>image/svg+xml</dc:format>
    <dc:type rdf:resource="http://purl.org/dc/dcmitype/StillImage"/>
    <dc:title/>
   </cc:Work>
  </rdf:RDF>
 </metadata>
 <path d="m231 75.4c0 5.38-3.73 9.98-9.1 9.98a6.14 6.14 0 0 1-6.44-6.51c0-5.35 3.73-9.98 9.1-9.98 4.24 0 6.44 3.04 6.44 6.51zm-11.7 3.37c0 2.17 1.13 3.69 3.08 3.69 2.82 0 4.7-3.89 4.7-7.03 0-1.62-0.744-3.63-3.01-3.63-3.01 0-4.76 4.02-4.76 6.97zm37.3-3.37c0 5.38-3.73 9.98-9.1 9.98a6.14 6.14 0 0 1-6.44-6.51c0-5.35 3.73-9.98 9.1-9.98 4.24 0 6.44 3.04 6.44 6.51zm-11.7 3.37c0 2.17 1.13 3.69 3.08 3.69 2.82 0 4.7-3.89 4.7-7.03 0-1.62-0.744-3.63-3.01-3.63-3.01-1e-4 -4.76 4.02-4.76 6.97zm-8.37-14.7-3.98 20.9h3.76l4.01-20.9zm-60.8 4.84a9.94 9.94 0 0 0-10 10.1c0 3.76 2.43 6.28 6.38 6.28a10.6 10.6 0 0 0 4.65-0.963l0.622-3.27a8.51 8.51 0 0 1-4.24 1.19c-2.1 0-3.47-1.33-3.47-3.69 0-3.3 2.3-6.64 5.93-6.64a5.71 5.71 0 0 1 2.91 0.736l0.596-3.14a8.69 8.69 0 0 0-3.37-0.643zm-21.5 11.9a4.34 4.34 0 0 1-0.421-2.24c6.09 0.13 10.3-1.17 10.3-5.21 0-2.66-1.98-4.44-5.09-4.44-5.44 0-8.94 5.18-8.94 9.94 0 3.86 2.1 6.54 6.48 6.54a12.3 12.3 0 0 0 5.96-1.48l0.646-3.4a9.5 9.5 0 0 1-5.73 1.9 3.49 3.49 0 0 1-3.24-1.62zm4.34-9.07c1.2 0 2.01 0.614 2.01 1.62 0 1.91-2.49 2.43-6.38 2.39 0.455-1.91 2.01-4.01 4.37-4.01zm110-2.82c-6.71 0-10.1 5.93-10.1 10.9 0 2.82 1.39 5.57 4.76 5.57a6.35 6.35 0 0 0 5.24-2.82l-0.302 1.38c-0.776 3.66-2.66 4.83-5.12 4.83a9.12 9.12 0 0 1-4.15-0.94l-0.585 3.08a11.2 11.2 0 0 0 4.65 0.875 9.27 9.27 0 0 0 5.89-1.75c1.8-1.49 2.69-3.95 3.27-7.03l1.43-7.15a13 13 0 0 0 0.324-2.72c0-2.85-1.98-4.25-5.28-4.25zm1.2 6.77-0.291 1.46c-0.648 3.18-2.66 5.19-4.6 5.19-1.75 0-2.5-1.46-2.5-3.18 0-3.11 2.17-7.36 5.48-7.36a1.88 1.88 0 0 1 2.11 2.01 6.55 6.55 0 0 1-0.194 1.88zm-57.2-2.44c0-2.98-1.75-4.34-4.02-4.34a6.83 6.83 0 0 0-5.76 3.31l0.584-3.05h-3.4l-3.02 15.9h3.76l1.4-7.29c0.68-3.7 2.85-5.77 4.56-5.77 1.49 0 1.98 0.937 1.98 2.27a10.5 10.5 0 0 1-0.186 1.88l-1.69 8.91h3.76l1.76-9.2a14.8 14.8 0 0 0 0.277-2.6zm-21.8-4.34a6.65 6.65 0 0 0-5.25 2.61l1.42-7.42h-3.79l-3.98 20.9h3.76l1.4-7.29c0.68-3.7 2.85-5.77 4.56-5.77 1.49 0 1.98 0.937 1.98 2.27a10.5 10.5 0 0 1-0.186 1.88l-1.69 8.91h3.76l1.76-9.2a14.8 14.8 0 0 0 0.276-2.6c4e-4 -2.98-1.75-4.34-4.02-4.34zm-43.8-3.71h-3.67l-0.806 4.06h-2.1l-0.551 2.92h2.11l-1.36 7.03a14.7 14.7 0 0 0-0.326 2.92c0 1.81 1.14 3.24 3.73 3.24a7.53 7.53 0 0 0 2.46-0.323l0.569-2.99a7.45 7.45 0 0 1-1.51 0.142 1.25 1.25 0 0 1-1.39-1.43 11.2 11.2 0 0 1 0.291-2.23l1.23-6.35h3.53l0.582-2.92h-3.53zm142 16.9-0.083 0.436h-0.961l-0.471 2.48h-0.474l0.471-2.48h-0.966l0.083-0.436zm3.55 0-0.554 2.91h-0.474l0.388-2.04-1.18 1.38h-0.283l-0.656-1.39-0.389 2.04h-0.474l0.554-2.91h0.428l0.79 1.67 1.42-1.67zm-19.2 8.81c2.89 1.34 5.74 0.745 7.8-2.95v-0.0062l10.6-18.8h-4.02l-5.99 11.7-1.46-11.7h-3.95l2.81 15.4-1.23 2.47c-1.11 1.89-3.04 1.27-3.93 0.775zm-118-54a11.6 11.6 0 0 1-3.4 8.54c-3 2.98-7.86 4.6-13.7 4.56-4.2-0.0695-8.44-1.09-10.8-2.56l1.6-8.41a24.2 24.2 0 0 0 10.3 2.9c2.73 0 4.57-1.26 4.57-3.28 0-1.83-1.29-3.11-4.6-4.73-5.22-2.61-7.84-5.92-7.84-9.83 0-7.68 6.54-12.9 16.4-12.9 5.19 0 8.57 1.22 10.4 2.43l-1.6 8.39a17.5 17.5 0 0 0-9.38-2.67c-2.86 0-4.72 1.2-4.72 3.2 0 1.44 1.43 2.73 4.44 4.2 3.93 1.96 8.37 4.87 8.37 10.1zm-68-25.6c-13.8 0-24.2 10.1-24.2 23.5 0 9.25 6.14 15.2 15.7 15.2a25.9 25.9 0 0 0 10.6-1.99l1.75-9.22a19.5 19.5 0 0 1-9.23 2.39c-3.48 0-7.22-2.01-7.22-7.6 0-6.6 4.68-13.4 12.5-13.4a12 12 0 0 1 6.09 1.45l1.71-8.97a21.3 21.3 0 0 0-7.64-1.31zm194 30.1a24.6 24.6 0 0 0 13-3.66l-1.77 9.28c-5.26 2.68-11.4 2.98-13.8 2.98-10.3 0-16.1-5.71-16.1-15.7a24.6 24.6 0 0 1 5.79-15.8 20.6 20.6 0 0 1 15.9-7.31c7.76 0 12.9 4.51 12.9 11.2a10.1 10.1 0 0 1-2.99 7.57c-3.71 3.61-12.8 5.64-21.2 4-0.396 4.69 3.13 7.4 8.34 7.4zm-7.13-14.6c6.47 0.0531 10.1-0.602 11.7-2.18 1.72-1.71 1.18-5.37-3.06-5.37-4.77-5e-4 -7.81 3.91-8.64 7.55zm-17.2-15.5c-13.8 0-24.2 10.1-24.2 23.5 0 9.25 6.14 15.2 15.7 15.2a25.9 25.9 0 0 0 10.6-1.99l1.75-9.22a19.5 19.5 0 0 1-9.23 2.39c-3.48 0-7.22-2.01-7.22-7.6 0-6.6 4.68-13.4 12.5-13.4a12 12 0 0 1 6.09 1.45l1.71-8.97a21.3 21.3 0 0 0-7.64-1.31zm-26.1 17.1-3.98 20.8h-10.5l1.37-7.17a11.1 11.1 0 0 1-11.1 8c-7.33 0-10.6-6.51-10.6-13a28.1 28.1 0 0 1 7.77-19.6 21.1 21.1 0 0 1 15.2-6.24c4.48 0.0178 7.79 1.31 9.86 3.83 3.07 3.72 2.82 9.31 2.05 13.4zm-10.1-4.79c-0.129-2.63-1.5-4.04-3.95-4.04-5.19 0-9.68 8.96-9.68 15.2 0.0014 3.89 1.44 6.31 3.95 6.31 4.01 0 7.47-4.2 8.66-10.3a41.9 41.9 0 0 0 1.01-7.11zm-159 4.79-3.98 20.8h-10.5l1.37-7.17a11.1 11.1 0 0 1-11.1 8c-7.33 0-10.6-6.51-10.6-13a28.1 28.1 0 0 1 7.77-19.6 21.1 21.1 0 0 1 15.2-6.24c4.48 0.0178 7.79 1.31 9.86 3.83 3.07 3.72 2.82 9.31 2.05 13.4zm-10.1-4.79c-0.129-2.63-1.5-4.04-3.95-4.04-5.19 0-9.68 8.96-9.68 15.2 2e-3 3.89 1.44 6.31 3.95 6.31 4.01 0 7.47-4.2 8.66-10.3a41.9 41.9 0 0 0 1.01-7.11zm144 1.75c0 9.05-4.34 18.3-12.2 22.5a17.6 17.6 0 0 1-8.02 2.2c-3.92 0-6.12-1.46-7.37-3.72l-2.8 14.8h-11l9.36-49.3h9.72l-1.14 5.98c2.74-3.99 6.81-6.66 11.4-6.66 7.3 0 12 5.53 12 14.2zm-11.5 0.836c0-1.75-0.414-6.01-4.45-6.01-4.11 0-7.58 4.68-8.92 11.8-0.46 2.43-1.75 9.72 3.33 9.72 5.79 1e-4 10-8.22 10-15.5zm-169-6.03 1.57-8.28h-9.71l-7.23 38h11l2.98-15.7c1.76-9.24 7.06-12.9 14.6-11.8l2.15-11.3a15.3 15.3 0 0 0-15.4 9.07zm88.5 29.1 3.8-20 7.82 20h11.9l-8.09-20.1 14.7-17.2h-12l-14.2 17 5.5-28.9h-11l-9.36 49.3z"/>
</svg>
